<svg xmlns="http://www.w3.org/2000/svg" xmlns:xlink="http://www.w3.org/1999/xlink" version="1.0" x="0" y="0" width="2400" height="1902.3428944339921" viewBox="76.15490280151367 50.61435638427734 187.69019439697266 148.77129486083984" preserveAspectRatio="xMidYMid meet" color-interpolation-filters="sRGB"><g><defs><linearGradient id="92" x1="0%" y1="0%" x2="100%" y2="0%"><stop offset="0%" stop-color="#fa71cd"></stop> <stop offset="100%" stop-color="#9b59b6"></stop></linearGradient><linearGradient id="93" x1="0%" y1="0%" x2="100%" y2="0%"><stop offset="0%" stop-color="#f9d423"></stop> <stop offset="100%" stop-color="#f83600"></stop></linearGradient><linearGradient id="94" x1="0%" y1="0%" x2="100%" y2="0%"><stop offset="0%" stop-color="#0064d2"></stop> <stop offset="100%" stop-color="#1cb0f6"></stop></linearGradient><linearGradient id="95" x1="0%" y1="0%" x2="100%" y2="0%"><stop offset="0%" stop-color="#f00978"></stop> <stop offset="100%" stop-color="#3f51b1"></stop></linearGradient><linearGradient id="96" x1="0%" y1="0%" x2="100%" y2="0%"><stop offset="0%" stop-color="#7873f5"></stop> <stop offset="100%" stop-color="#ec77ab"></stop></linearGradient><linearGradient id="97" x1="0%" y1="0%" x2="100%" y2="0%"><stop offset="0%" stop-color="#f9d423"></stop> <stop offset="100%" stop-color="#e14fad"></stop></linearGradient><linearGradient id="98" x1="0%" y1="0%" x2="100%" y2="0%"><stop offset="0%" stop-color="#009efd"></stop> <stop offset="100%" stop-color="#2af598"></stop></linearGradient><linearGradient id="99" x1="0%" y1="0%" x2="100%" y2="0%"><stop offset="0%" stop-color="#ffcc00"></stop> <stop offset="100%" stop-color="#00b140"></stop></linearGradient><linearGradient id="100" x1="0%" y1="0%" x2="100%" y2="0%"><stop offset="0%" stop-color="#d51007"></stop> <stop offset="100%" stop-color="#ff8177"></stop></linearGradient><linearGradient id="102" x1="0%" y1="0%" x2="100%" y2="0%"><stop offset="0%" stop-color="#a2b6df"></stop> <stop offset="100%" stop-color="#0c3483"></stop></linearGradient><linearGradient id="103" x1="0%" y1="0%" x2="100%" y2="0%"><stop offset="0%" stop-color="#7ac5d8"></stop> <stop offset="100%" stop-color="#eea2a2"></stop></linearGradient><linearGradient id="104" x1="0%" y1="0%" x2="100%" y2="0%"><stop offset="0%" stop-color="#00ecbc"></stop> <stop offset="100%" stop-color="#007adf"></stop></linearGradient><linearGradient id="105" x1="0%" y1="0%" x2="100%" y2="0%"><stop offset="0%" stop-color="#b88746"></stop> <stop offset="100%" stop-color="#fdf5a6"></stop></linearGradient></defs><g fill="#333" class="icon-text-wrapper icon-svg-group iconsvg" transform="translate(77.99500274658203,52.45445251464844)"><g class="iconsvg-imagesvg" transform="translate(33.804996490478516,0)"><g><rect fill="#333" fill-opacity="0" stroke-width="2" x="0" y="0" width="116.40000000000005" height="101.97109067017088" class="image-rect"></rect> <svg x="0" y="0" width="116.40000000000005" height="101.97109067017088" filtersec="colorsb6075751637" class="image-svg-svg primary" style="overflow: visible;"><svg xmlns="http://www.w3.org/2000/svg" viewBox="0 0 114.1500015258789 100"><path fill="#333" d="M56.41 0L17.13 68.04h22.52l16.76-29.05L91.64 100h22.51L56.41 0z"></path><path fill="#0023E6" d="M10.26 81.06L0 100h75.37L57.61 68.04l-7.1 13.41-40.25-.39z"></path></svg></svg> </g></g> <g transform="translate(0,107.9710922241211)"><g fill-rule="" class="tp-name iconsvg-namesvg"><g transform="scale(1)"><g><path d="M36.73 0L26.06 0 24.28-6.77 12.55-6.77 10.72 0 0 0 11.78-36.26 24.8-36.26 36.73 0ZM14.57-14.77L22.26-14.77 20.7-20.7Q20.16-22.68 19.38-25.81 18.6-28.95 18.35-30.31L18.35-30.31Q18.13-29.05 17.48-26.16 16.82-23.27 14.57-14.77L14.57-14.77ZM64.25-10.97L64.25-10.97Q64.25-7.61 62.55-5 60.84-2.4 57.63-0.95 54.42 0.49 50.1 0.49L50.1 0.49Q46.49 0.49 44.04-0.01 41.6-0.52 38.96-1.78L38.96-1.78 38.96-10.47Q41.75-9.04 44.76-8.24 47.77-7.44 50.29-7.44L50.29-7.44Q52.47-7.44 53.48-8.19 54.49-8.94 54.49-10.13L54.49-10.13Q54.49-10.87 54.09-11.42 53.68-11.98 52.78-12.55 51.87-13.12 47.97-14.87L47.97-14.87Q44.44-16.48 42.67-17.98 40.91-19.49 40.05-21.44 39.2-23.39 39.2-26.06L39.2-26.06Q39.2-31.05 42.83-33.84 46.46-36.63 52.81-36.63L52.81-36.63Q58.42-36.63 64.25-34.04L64.25-34.04 61.26-26.51Q56.2-28.83 52.52-28.83L52.52-28.83Q50.61-28.83 49.75-28.16 48.89-27.49 48.89-26.51L48.89-26.51Q48.89-25.44 49.99-24.6 51.08-23.76 55.95-21.54L55.95-21.54Q60.62-19.44 62.43-17.03 64.25-14.62 64.25-10.97ZM91.27-7.95L91.27 0 69.83 0 69.83-36.11 91.27-36.11 91.27-28.28 79.59-28.28 79.59-22.6 90.41-22.6 90.41-14.77 79.59-14.77 79.59-7.95 91.27-7.95ZM121.21-10.97L121.21-10.97Q121.21-7.61 119.51-5 117.81-2.4 114.59-0.95 111.38 0.49 107.06 0.49L107.06 0.49Q103.45 0.49 101.01-0.01 98.56-0.52 95.92-1.78L95.92-1.78 95.92-10.47Q98.71-9.04 101.72-8.24 104.74-7.44 107.26-7.44L107.26-7.44Q109.43-7.44 110.44-8.19 111.46-8.94 111.46-10.13L111.46-10.13Q111.46-10.87 111.05-11.42 110.64-11.98 109.74-12.55 108.84-13.12 104.94-14.87L104.94-14.87Q101.4-16.48 99.64-17.98 97.87-19.49 97.02-21.44 96.17-23.39 96.17-26.06L96.17-26.06Q96.17-31.05 99.8-33.84 103.43-36.63 109.78-36.63L109.78-36.63Q115.38-36.63 121.21-34.04L121.21-34.04 118.22-26.51Q113.16-28.83 109.48-28.83L109.48-28.83Q107.58-28.83 106.71-28.16 105.85-27.49 105.85-26.51L105.85-26.51Q105.85-25.44 106.95-24.6 108.05-23.76 112.91-21.54L112.91-21.54Q117.58-19.44 119.4-17.03 121.21-14.62 121.21-10.97ZM133.52-36.11L139.69-22.73 145.92-36.11 156.49-36.11 144.61-14.1 144.61 0 134.78 0 134.78-13.81 122.89-36.11 133.52-36.11ZM184.01-10.97L184.01-10.97Q184.01-7.61 182.3-5 180.6-2.4 177.39-0.95 174.18 0.49 169.85 0.49L169.85 0.49Q166.25 0.49 163.8-0.01 161.36-0.52 158.71-1.78L158.71-1.78 158.71-10.47Q161.5-9.04 164.52-8.24 167.53-7.44 170.05-7.44L170.05-7.44Q172.22-7.44 173.24-8.19 174.25-8.94 174.25-10.13L174.25-10.13Q174.25-10.87 173.84-11.42 173.43-11.98 172.53-12.55 171.63-13.12 167.73-14.87L167.73-14.87Q164.2-16.48 162.43-17.98 160.66-19.49 159.81-21.44 158.96-23.39 158.96-26.06L158.96-26.06Q158.96-31.05 162.59-33.84 166.22-36.63 172.57-36.63L172.57-36.63Q178.18-36.63 184.01-34.04L184.01-34.04 181.02-26.51Q175.95-28.83 172.27-28.83L172.27-28.83Q170.37-28.83 169.51-28.16 168.64-27.49 168.64-26.51L168.64-26.51Q168.64-25.44 169.74-24.6 170.84-23.76 175.71-21.54L175.71-21.54Q180.38-19.44 182.19-17.03 184.01-14.62 184.01-10.97Z" transform="translate(0, 36.630001068115234)"></path></g> </g></g> </g></g><defs v-gra="od"></defs></g></svg>