<svg xmlns="http://www.w3.org/2000/svg" xmlns:xlink="http://www.w3.org/1999/xlink" version="1.0" x="0" y="0" width="2400" height="2126.9915800204676" viewBox="76.15490280151367 41.83011184692383 187.69019439697266 166.33977630615234" preserveAspectRatio="xMidYMid meet" color-interpolation-filters="sRGB"><g><defs><linearGradient id="92" x1="0%" y1="0%" x2="100%" y2="0%"><stop offset="0%" stop-color="#fa71cd"></stop> <stop offset="100%" stop-color="#9b59b6"></stop></linearGradient><linearGradient id="93" x1="0%" y1="0%" x2="100%" y2="0%"><stop offset="0%" stop-color="#f9d423"></stop> <stop offset="100%" stop-color="#f83600"></stop></linearGradient><linearGradient id="94" x1="0%" y1="0%" x2="100%" y2="0%"><stop offset="0%" stop-color="#0064d2"></stop> <stop offset="100%" stop-color="#1cb0f6"></stop></linearGradient><linearGradient id="95" x1="0%" y1="0%" x2="100%" y2="0%"><stop offset="0%" stop-color="#f00978"></stop> <stop offset="100%" stop-color="#3f51b1"></stop></linearGradient><linearGradient id="96" x1="0%" y1="0%" x2="100%" y2="0%"><stop offset="0%" stop-color="#7873f5"></stop> <stop offset="100%" stop-color="#ec77ab"></stop></linearGradient><linearGradient id="97" x1="0%" y1="0%" x2="100%" y2="0%"><stop offset="0%" stop-color="#f9d423"></stop> <stop offset="100%" stop-color="#e14fad"></stop></linearGradient><linearGradient id="98" x1="0%" y1="0%" x2="100%" y2="0%"><stop offset="0%" stop-color="#009efd"></stop> <stop offset="100%" stop-color="#2af598"></stop></linearGradient><linearGradient id="99" x1="0%" y1="0%" x2="100%" y2="0%"><stop offset="0%" stop-color="#ffcc00"></stop> <stop offset="100%" stop-color="#00b140"></stop></linearGradient><linearGradient id="100" x1="0%" y1="0%" x2="100%" y2="0%"><stop offset="0%" stop-color="#d51007"></stop> <stop offset="100%" stop-color="#ff8177"></stop></linearGradient><linearGradient id="102" x1="0%" y1="0%" x2="100%" y2="0%"><stop offset="0%" stop-color="#a2b6df"></stop> <stop offset="100%" stop-color="#0c3483"></stop></linearGradient><linearGradient id="103" x1="0%" y1="0%" x2="100%" y2="0%"><stop offset="0%" stop-color="#7ac5d8"></stop> <stop offset="100%" stop-color="#eea2a2"></stop></linearGradient><linearGradient id="104" x1="0%" y1="0%" x2="100%" y2="0%"><stop offset="0%" stop-color="#00ecbc"></stop> <stop offset="100%" stop-color="#007adf"></stop></linearGradient><linearGradient id="105" x1="0%" y1="0%" x2="100%" y2="0%"><stop offset="0%" stop-color="#b88746"></stop> <stop offset="100%" stop-color="#fdf5a6"></stop></linearGradient></defs><g fill="#fff" class="icon-text-wrapper icon-svg-group iconsvg" transform="translate(77.99500274658203,43.67021179199219)"><g class="iconsvg-imagesvg" transform="translate(33.804996490478516,0)"><g><rect fill="#fff" fill-opacity="0" stroke-width="2" x="0" y="0" width="116.40000000000005" height="101.97109067017088" class="image-rect"></rect> <svg filter="url(#colors7156547819)" x="0" y="0" width="116.40000000000005" height="101.97109067017088" filtersec="colorsf2120800671" class="image-svg-svg primary" style="overflow: visible;"><svg xmlns="http://www.w3.org/2000/svg" viewBox="0 0 114.1500015258789 100"><path fill="#333" d="M56.41 0L17.13 68.04h22.52l16.76-29.05L91.64 100h22.51L56.41 0z"></path><path fill="#0023E6" d="M10.26 81.06L0 100h75.37L57.61 68.04l-7.1 13.41-40.25-.39z"></path></svg></svg> <defs><filter id="colors7156547819"><feColorMatrix type="matrix" values="0 0 0 0 0.99609375  0 0 0 0 0.99609375  0 0 0 0 0.99609375  0 0 0 1 0" class="icon-feColorMatrix "></feColorMatrix></filter> <filter id="colorsf2120800671"><feColorMatrix type="matrix" values="0 0 0 0 0.99609375  0 0 0 0 0.99609375  0 0 0 0 0.99609375  0 0 0 1 0" class="icon-fecolormatrix"></feColorMatrix></filter> <filter id="colorsb166268969"><feColorMatrix type="matrix" values="0 0 0 0 0  0 0 0 0 0  0 0 0 0 0  0 0 0 1 0" class="icon-fecolormatrix"></feColorMatrix></filter></defs></g></g> <g transform="translate(0,107.9710922241211)"><g fill-rule="" class="tp-name iconsvg-namesvg" transform="translate(0,0)"><g transform="scale(1)"><g><path d="M36.73 0L26.06 0 24.28-6.77 12.55-6.77 10.72 0 0 0 11.78-36.26 24.8-36.26 36.73 0ZM14.57-14.77L22.26-14.77 20.7-20.7Q20.16-22.68 19.38-25.81 18.6-28.95 18.35-30.31L18.35-30.31Q18.13-29.05 17.48-26.16 16.82-23.27 14.57-14.77L14.57-14.77ZM64.25-10.97L64.25-10.97Q64.25-7.61 62.55-5 60.84-2.4 57.63-0.95 54.42 0.49 50.1 0.49L50.1 0.49Q46.49 0.49 44.04-0.01 41.6-0.52 38.96-1.78L38.96-1.78 38.96-10.47Q41.75-9.04 44.76-8.24 47.77-7.44 50.29-7.44L50.29-7.44Q52.47-7.44 53.48-8.19 54.49-8.94 54.49-10.13L54.49-10.13Q54.49-10.87 54.09-11.42 53.68-11.98 52.78-12.55 51.87-13.12 47.97-14.87L47.97-14.87Q44.44-16.48 42.67-17.98 40.91-19.49 40.05-21.44 39.2-23.39 39.2-26.06L39.2-26.06Q39.2-31.05 42.83-33.84 46.46-36.63 52.81-36.63L52.81-36.63Q58.42-36.63 64.25-34.04L64.25-34.04 61.26-26.51Q56.2-28.83 52.52-28.83L52.52-28.83Q50.61-28.83 49.75-28.16 48.89-27.49 48.89-26.51L48.89-26.51Q48.89-25.44 49.99-24.6 51.08-23.76 55.95-21.54L55.95-21.54Q60.62-19.44 62.43-17.03 64.25-14.62 64.25-10.97ZM91.27-7.95L91.27 0 69.83 0 69.83-36.11 91.27-36.11 91.27-28.28 79.59-28.28 79.59-22.6 90.41-22.6 90.41-14.77 79.59-14.77 79.59-7.95 91.27-7.95ZM121.21-10.97L121.21-10.97Q121.21-7.61 119.51-5 117.81-2.4 114.59-0.95 111.38 0.49 107.06 0.49L107.06 0.49Q103.45 0.49 101.01-0.01 98.56-0.52 95.92-1.78L95.92-1.78 95.92-10.47Q98.71-9.04 101.72-8.24 104.74-7.44 107.26-7.44L107.26-7.44Q109.43-7.44 110.44-8.19 111.46-8.94 111.46-10.13L111.46-10.13Q111.46-10.87 111.05-11.42 110.64-11.98 109.74-12.55 108.84-13.12 104.94-14.87L104.94-14.87Q101.4-16.48 99.64-17.98 97.87-19.49 97.02-21.44 96.17-23.39 96.17-26.06L96.17-26.06Q96.17-31.05 99.8-33.84 103.43-36.63 109.78-36.63L109.78-36.63Q115.38-36.63 121.21-34.04L121.21-34.04 118.22-26.51Q113.16-28.83 109.48-28.83L109.48-28.83Q107.58-28.83 106.71-28.16 105.85-27.49 105.85-26.51L105.85-26.51Q105.85-25.44 106.95-24.6 108.05-23.76 112.91-21.54L112.91-21.54Q117.58-19.44 119.4-17.03 121.21-14.62 121.21-10.97ZM133.52-36.11L139.69-22.73 145.92-36.11 156.49-36.11 144.61-14.1 144.61 0 134.78 0 134.78-13.81 122.89-36.11 133.52-36.11ZM184.01-10.97L184.01-10.97Q184.01-7.61 182.3-5 180.6-2.4 177.39-0.95 174.18 0.49 169.85 0.49L169.85 0.49Q166.25 0.49 163.8-0.01 161.36-0.52 158.71-1.78L158.71-1.78 158.71-10.47Q161.5-9.04 164.52-8.24 167.53-7.44 170.05-7.44L170.05-7.44Q172.22-7.44 173.24-8.19 174.25-8.94 174.25-10.13L174.25-10.13Q174.25-10.87 173.84-11.42 173.43-11.98 172.53-12.55 171.63-13.12 167.73-14.87L167.73-14.87Q164.2-16.48 162.43-17.98 160.66-19.49 159.81-21.44 158.96-23.39 158.96-26.06L158.96-26.06Q158.96-31.05 162.59-33.84 166.22-36.63 172.57-36.63L172.57-36.63Q178.18-36.63 184.01-34.04L184.01-34.04 181.02-26.51Q175.95-28.83 172.27-28.83L172.27-28.83Q170.37-28.83 169.51-28.16 168.64-27.49 168.64-26.51L168.64-26.51Q168.64-25.44 169.74-24.6 170.84-23.76 175.71-21.54L175.71-21.54Q180.38-19.44 182.19-17.03 184.01-14.62 184.01-10.97Z" transform="translate(0, 36.630001068115234)"></path></g> </g></g> <g fill-rule="" class="tp-slogan iconsvg-slogansvg" fill="#fff" transform="translate(5,43.12000274658203)"><rect x="0" height="1" y="5.282700061798096" width="20.402999877929688"></rect> <rect height="1" y="5.282700061798096" width="20.402999877929688" x="153.60699462890625"></rect> <g transform="translate(23.402999877929688,0)"><g transform="scale(1.5400000000000005)"><path d="M2.78-1.22L2.78-1.22L2.78-3.06Q2.78-3.28 2.72-3.34Q2.65-3.41 2.44-3.41L2.44-3.41L1.55-3.41Q0.46-3.41 0.46-4.48L0.46-4.48L0.46-6.46Q0.46-7.51 1.57-7.51L1.57-7.51L2.75-7.51Q3.86-7.51 3.86-6.46L3.86-6.46L3.86-5.35L2.77-5.35L2.77-6.29Q2.77-6.50 2.70-6.57Q2.63-6.64 2.41-6.64L2.41-6.64L1.91-6.64Q1.69-6.64 1.62-6.57Q1.55-6.50 1.55-6.29L1.55-6.29L1.55-4.62Q1.55-4.40 1.62-4.34Q1.69-4.27 1.91-4.27L1.91-4.27L2.78-4.27Q3.89-4.27 3.89-3.22L3.89-3.22L3.89-1.06Q3.89 0 2.76 0L2.76 0L1.60 0Q0.48 0 0.48-1.06L0.48-1.06L0.48-2.16L1.57-2.16L1.57-1.22Q1.57-1.01 1.64-0.94Q1.72-0.88 1.93-0.88L1.93-0.88L2.44-0.88Q2.65-0.88 2.72-0.94Q2.78-1.01 2.78-1.22ZM6.02-7.51L6.02-7.51L7.36-7.51Q8.47-7.51 8.47-6.46L8.47-6.46L8.47-1.06Q8.47 0 7.36 0L7.36 0L6.02 0Q4.90 0 4.90-1.06L4.90-1.06L4.90-6.46Q4.90-7.51 6.02-7.51ZM7.39-1.22L7.39-1.22L7.39-6.29Q7.39-6.50 7.32-6.57Q7.25-6.64 7.03-6.64L7.03-6.64L6.34-6.64Q6.12-6.64 6.05-6.57Q5.99-6.50 5.99-6.29L5.99-6.29L5.99-1.22Q5.99-1.01 6.05-0.94Q6.12-0.88 6.34-0.88L6.34-0.88L7.03-0.88Q7.25-0.88 7.32-0.94Q7.39-1.01 7.39-1.22ZM12.95-7.51L12.95-6.64L10.76-6.64L10.76-4.16L12.49-4.16L12.49-3.31L10.76-3.31L10.76 0L9.67 0L9.67-7.51L12.95-7.51ZM13.09-7.51L16.69-7.51L16.69-6.64L15.43-6.64L15.43 0L14.35 0L14.35-6.64L13.09-6.64L13.09-7.51ZM21.97-0.98L22.85-7.51L23.94-7.51L22.74 0L21.24 0L20.40-5.64L19.57 0L18.07 0L16.87-7.51L17.99-7.51L18.83-0.98L19.80-7.51L21-7.51L21.97-0.98ZM28.54 0L27.44 0L27.14-1.74L25.56-1.74L25.28 0L24.20 0L25.54-7.51L27.11-7.51L28.54 0ZM26.32-6.58L25.69-2.62L27-2.62L26.32-6.58ZM30.97-3.04L30.38-3.04L30.38 0L29.30 0L29.30-7.51L31.76-7.51Q32.88-7.51 32.88-6.46L32.88-6.46L32.88-4.10Q32.88-3.19 32.08-3.06L32.08-3.06L33.26 0L32.10 0L30.97-3.04ZM31.44-6.64L30.38-6.64L30.38-3.90L31.44-3.90Q31.66-3.90 31.73-3.97Q31.80-4.03 31.80-4.25L31.80-4.25L31.80-6.29Q31.80-6.50 31.73-6.57Q31.66-6.64 31.44-6.64L31.44-6.64ZM35.15-3.44L35.15-0.88L37.32-0.88L37.32 0L34.06 0L34.06-7.51L37.24-7.51L37.24-6.64L35.15-6.64L35.15-4.32L36.88-4.32L36.88-3.44L35.15-3.44ZM43.76 0L42.67 0L42.37-1.74L40.79-1.74L40.51 0L39.43 0L40.76-7.51L42.34-7.51L43.76 0ZM41.54-6.58L40.92-2.62L42.23-2.62L41.54-6.58ZM45.71-7.51L49.31-7.51L49.31-6.64L48.05-6.64L48.05 0L46.97 0L46.97-6.64L45.71-6.64L45.71-7.51ZM52.45-1.22L52.45-7.51L53.54-7.51L53.54-1.06Q53.54 0 52.42 0L52.42 0L51.08 0Q49.96 0 49.96-1.06L49.96-1.06L49.96-7.51L51.05-7.51L51.05-1.22Q51.05-1.01 51.12-0.94Q51.19-0.88 51.41-0.88L51.41-0.88L52.09-0.88Q52.32-0.88 52.39-0.94Q52.45-1.01 52.45-1.22L52.45-1.22ZM57.44-5.48L57.44 0L56.50 0L56.50-7.51L57.68-7.51L58.97-2.86L60.25-7.51L61.44-7.51L61.44 0L60.49 0L60.49-5.50L59.46-1.63L58.48-1.63L57.44-5.48ZM63.78-3.44L63.78-0.88L65.95-0.88L65.95 0L62.69 0L62.69-7.51L65.87-7.51L65.87-6.64L63.78-6.64L63.78-4.32L65.51-4.32L65.51-3.44L63.78-3.44ZM66.83 0L66.83-7.51L69.44-7.51Q70.56-7.51 70.56-6.46L70.56-6.46L70.56-1.06Q70.56 0 69.44 0L69.44 0L66.83 0ZM69.47-1.20L69.47-1.20L69.47-6.31Q69.47-6.53 69.40-6.59Q69.32-6.66 69.11-6.66L69.11-6.66L67.92-6.66L67.92-0.85L69.11-0.85Q69.32-0.85 69.40-0.92Q69.47-0.98 69.47-1.20ZM71.84 0L71.84-7.51L72.92-7.51L72.92 0L71.84 0ZM74.29 0L74.29-7.51L76.91-7.51Q78.02-7.51 78.02-6.46L78.02-6.46L78.02-1.06Q78.02 0 76.91 0L76.91 0L74.29 0ZM76.93-1.20L76.93-1.20L76.93-6.31Q76.93-6.53 76.86-6.59Q76.79-6.66 76.57-6.66L76.57-6.66L75.38-6.66L75.38-0.85L76.57-0.85Q76.79-0.85 76.86-0.92Q76.93-0.98 76.93-1.20ZM83.06 0L81.97 0L81.67-1.74L80.09-1.74L79.81 0L78.73 0L80.06-7.51L81.64-7.51L83.06 0ZM80.84-6.58L80.22-2.62L81.53-2.62L80.84-6.58Z" transform="translate(-0.456, 7.5120000000000005)"></path></g></g></g></g></g><defs v-gra="od"></defs></g></svg>